<svg xmlns="http://www.w3.org/2000/svg" xml:space="preserve" width="2000" height="559" data-id="lg_oW7K1YRHTssYCsdZnj" data-version="1" viewBox="0 0 2000 559"><g data-padding="20"><g transform="translate(10 13.373)scale(.95215)"><path fill="#fff" d="M1248.529 220.274h.29v314.944c-.012 13.097-10.625 23.71-23.72 23.722h-370.7c-13.095-.012-23.708-10.625-23.72-23.722V220.274h.29q-.29-5.532-.29-11.144c0-115.46 93.598-209.07 209.07-209.07s209.07 93.61 209.07 209.07q0 5.6-.29 11.144"/><path fill="#001f3f" d="M1228.763 235.195h.269v99.111c0 12.29-9.587 22.251-21.415 22.251H872.833c-11.827 0-21.414-9.962-21.414-22.25v-99.112h.269q-.256-5.187-.27-10.454c0-108.342 84.519-147.617 188.8-147.617s188.8 39.275 188.8 147.617q0 5.253-.268 10.453Z"/><path fill="#fff" d="m1226.999 227.965-137.057-13.454q-6.293-.694-12.065-3.645l65.534-79.856c8.159-9.895 6.727-11.371-3.212-3.212l-79.856 65.534a34.7 34.7 0 0 1-3.602-12.065L1043.244 44.21c-1.65-16.622-4.34-16.622-5.99 0L1023.8 181.267a34.7 34.7 0 0 1-3.645 12.065l-79.856-65.534c-9.895-8.159-11.371-6.727-3.212 3.212l65.534 79.856a34.7 34.7 0 0 1-12.065 3.602l-137.057 13.497c-16.622 1.65-16.622 4.34 0 5.99l137.057 13.454q6.293.694 12.065 3.645l-65.534 79.856c-8.16 9.895-6.727 11.371 3.212 3.212l79.856-65.534q2.95 5.772 3.602 12.065l13.497 137.057c1.65 16.622 4.34 16.622 5.99 0l13.454-137.057q.737-6.293 3.602-12.065l79.856 65.534c9.982 8.159 11.414 6.683 3.255-3.212l-65.534-79.856a34.7 34.7 0 0 1 12.065-3.602l137.057-13.497c16.622-1.65 16.622-4.34 0-5.99"/><path fill="none" stroke="#001f3f" stroke-width="1.5" d="M1156.343 196.153h.26v281.2c-.011 11.693-9.487 21.169-21.18 21.18h-330.98c-11.693-.011-21.169-9.487-21.18-21.18v-281.2h.26q-.26-4.94-.26-9.95c0-103.09 83.57-186.67 186.67-186.67s186.67 83.58 186.67 186.67q0 5-.26 9.95" paint-order="stroke" transform="matrix(1.06 0 0 1.07 13.03 12.605)"/><rect width="382.2" height="79.1" x="639.159" y="-40.05" fill="none" rx="0" ry="0" transform="translate(210.41 452.65)"/><path fill="#001f3f" d="M881.969 455.78h-12.81v-6.3h12.74q4.69 0 7.56-2.59t2.87-6.79q0-4.06-2.66-6.54-2.66-2.49-7.07-2.49h-13.44v-6.3h13.44q5.32 0 9.24 1.89t6.09 5.32 2.17 8.12-2.24 8.23q-2.24 3.53-6.34 5.49-4.09 1.96-9.55 1.96m-10.71 17.85h-7.42v-48.86h7.42Zm72.74-21.98h-7.07v-4.62q0-3.01-1.82-4.86-1.82-1.86-5.25-1.86-4.34 0-7.77 3.26-3.43 3.25-5.46 9.9l-.98-7.14q1.54-3.99 3.74-6.65 2.21-2.66 5.11-4.02 2.91-1.37 6.41-1.37 5.81 0 9.45 3.33 3.64 3.32 3.64 9.41Zm-26.04 21.98h-7.07v-38.5h6.65l.42 8.75Zm53.89.84q-5.95 0-10.26-2.45-4.3-2.45-6.61-6.96-2.31-4.52-2.31-10.68 0-6.3 2.31-10.74 2.31-4.45 6.61-6.9 4.31-2.45 10.33-2.45 8.96 0 14.07 5.36 5.11 5.35 5.11 14.73 0 6.16-2.31 10.68-2.31 4.51-6.62 6.96-4.3 2.45-10.32 2.45m.07-5.88q5.6 0 8.85-3.81 3.26-3.82 3.26-10.4 0-6.65-3.26-10.43-3.25-3.78-8.85-3.78-5.67 0-8.89 3.78t-3.22 10.43q0 6.58 3.22 10.4 3.22 3.81 8.89 3.81m45.43 5.88q-5.95 0-10.26-2.45-4.3-2.45-6.61-6.96-2.31-4.52-2.31-10.68 0-6.3 2.31-10.74 2.31-4.45 6.61-6.9 4.31-2.45 10.33-2.45 8.96 0 14.07 5.36 5.11 5.35 5.11 14.73 0 6.16-2.31 10.68-2.31 4.51-6.62 6.96-4.3 2.45-10.32 2.45m.07-5.88q5.6 0 8.85-3.81 3.26-3.82 3.26-10.4 0-6.65-3.26-10.43-3.25-3.78-8.85-3.78-5.67 0-8.89 3.78t-3.22 10.43q0 6.58 3.22 10.4 3.22 3.81 8.89 3.81m47.6 5.05h-7.07V430.8q0-3.57 1.33-6.23t3.95-4.2q2.63-1.54 6.48-1.54h11.48v5.74h-9.38q-1.89 0-3.47.49-1.57.49-2.45 1.79-.87 1.29-.87 3.74Zm12.11-32.76h-28.28v-5.74h28.28Zm3.29 32.76h-34.72v-5.74h34.72Zm27.93.83q-5.95 0-10.26-2.45-4.3-2.45-6.61-6.96-2.31-4.52-2.31-10.68 0-6.3 2.31-10.74 2.31-4.45 6.61-6.9 4.31-2.45 10.33-2.45 8.96 0 14.07 5.36 5.11 5.35 5.11 14.73 0 6.16-2.31 10.68-2.31 4.51-6.62 6.96-4.3 2.45-10.32 2.45m.07-5.88q5.6 0 8.85-3.81 3.26-3.82 3.26-10.4 0-6.65-3.26-10.43-3.25-3.78-8.85-3.78-5.67 0-8.89 3.78t-3.22 10.43q0 6.58 3.22 10.4 3.22 3.81 8.89 3.81m63.07-16.94h-7.07v-4.62q0-3.01-1.82-4.86-1.82-1.86-5.25-1.86-4.34 0-7.77 3.26-3.43 3.25-5.46 9.9l-.98-7.14q1.54-3.99 3.74-6.65 2.21-2.66 5.11-4.02 2.91-1.37 6.41-1.37 5.81 0 9.45 3.33 3.64 3.32 3.64 9.41Zm-26.04 21.98h-7.07v-38.5h6.65l.42 8.75Zm73.22 0h-6.51v-28.14q0-2.52-.88-3.92-.87-1.4-2.69-1.4-2.52 0-4.52 3.22-1.99 3.22-2.76 10.15l-.63-5.95q.21-6.3 2.97-9.8 2.77-3.5 6.83-3.5 3.78 0 5.98 2.77 2.21 2.76 2.21 7.87Zm-31.99 0h-6.51v-38.5h6.23l.28 7.49Zm15.96 0h-6.44v-28.14q0-2.66-.95-3.99-.94-1.33-2.83-1.33-2.66 0-4.55 3.36t-2.66 10.01l-.14-6.16q.14-4.13 1.47-7.07t3.43-4.48 4.48-1.54q3.92 0 6.05 2.84 2.14 2.83 2.14 7.73Z"/><rect width="79.868" height="24.86" x="790.325" y="-12.93" fill="none" rx="0" ry="0" transform="translate(209.99 45.43)"/><path fill="#001f3f" d="M1007.069 42.54q1.5 0 2 1.26.17.41.17.89 0 1.07-1.03 1.31-.54.1-1.53.08l-2.27-.06q.1-2.47 1.61-3.22.49-.26 1.05-.26m3.74 6.74-.54-.19q-.75 1.63-2.43 1.85-.21.02-.41.02-2.25 0-2.83-2.69-.17-.75-.19-1.65l2.57.04q2.62.05 3.38-.49.58-.43.58-1.23 0-1.46-1.49-2.32-1.05-.62-2.42-.62-2.69 0-3.85 2.23-.6 1.16-.6 2.63 0 2.66 1.91 3.95 1.14.75 2.6.75 2.32 0 3.42-1.67.17-.31.3-.61m4.96 1.69q1.48 0 2-.9.19-.32.19-.71 0-.9-1.31-1.55-.28-.15-.92-.43-1.76-.73-2.34-1.37-.63-.71-.63-1.66 0-1.48 1.64-2.08.75-.28 1.63-.28 1.42 0 2.45.6 0-.62.3-.71.13-.02.28-.02v2.69h-.56q-.04-1.98-2.19-2-1.61 0-2 .94-.11.26-.11.54 0 .93 1.33 1.57.31.15.95.41 1.74.71 2.32 1.35.62.69.62 1.63 0 1.74-1.84 2.32-.71.24-1.55.24-1.55-.02-2.69-.77 0 .56-.28.64-.13.02-.3.02v-3.26h.6q.05 2.77 2.41 2.79m4.94-8.75v.53h1.51v6.06q.15 2.69 2.47 2.77 1.97 0 2.47-2.43v-.04l-.58-.11q-.54 1.79-1.57 1.94-1.16-.05-1.18-1.66v-6.53h3.33v-.53h-3.33v-2.5l-1.61.45v2.05Zm9.82 8.14q0-.71-.64-1.01-.22-.11-.46-.11-.7 0-.98.65-.11.23-.11.47 0 .69.62.99.24.1.47.1.69 0 .99-.62.11-.24.11-.47m11.84-.52h-4.86q0-.62 1.55-1.61.28-.17.88-.56 2.41-1.44 3.29-2.4 1.09-1.19 1.09-2.45 0-2-1.99-2.75-.89-.33-1.98-.33-1.98 0-3.12 1.06-.77.73-.77 1.72 0 .88.64 1.09.16.04.28.04.84 0 1.04-.85.04-.22.08-.65.13-1.16.56-1.52.39-.33 1.1-.33 1.91 0 2.27 1.76.07.35.07.74 0 1.99-1.83 3.45-.19.15-1.93 1.34-1.64 1.09-2.06 2.12-.24.58-.24 1.21v.43h8.18l.05-3.61h-.41l-.34 1.16q-.24.75-.84.9-.26.04-.71.04m9.17-10.1q-2.3 0-3.63 1.87-1.09 1.57-1.09 3.96 0 3.63 2.08 5.17 1.12.82 2.56.82 2.3 0 3.61-1.93 1.07-1.59 1.07-4 0-3.82-2.26-5.24-1.03-.65-2.34-.65m-.02 11.26q-1.93 0-2.51-2.34-.3-1.2-.3-3.03 0-4.45 1.84-5.16.43-.17.95-.17 1.7 0 2.3 1.7.43 1.25.43 3.57 0 4.81-2.06 5.35-.31.08-.65.08m12.15-1.16h-4.86q0-.62 1.55-1.61.28-.17.88-.56 2.41-1.44 3.29-2.4 1.09-1.19 1.09-2.45 0-2-1.99-2.75-.88-.33-1.98-.33-1.98 0-3.12 1.06-.77.73-.77 1.72 0 .88.65 1.09.15.04.28.04.83 0 1.03-.85.04-.22.08-.65.13-1.16.56-1.52.39-.33 1.1-.33 1.91 0 2.27 1.76.07.35.07.74 0 1.99-1.83 3.45-.19.15-1.93 1.34-1.63 1.09-2.06 2.12-.24.58-.24 1.21v.43h8.19l.04-3.61h-.41l-.34 1.16q-.24.75-.84.9-.26.04-.71.04m7.37 3.01h5.91q0-.52-.28-.56-.11-.02-.24-.02h-1.46V49.5h1.98v-.65h-1.98v-4.21h-.43l-.21.82q-.18.71-.5.82-.15.06-.36.06h-.13v2.49l-5.03-.02q6.72-5.56 6.75-8.06-.05-.98-.97-1.01-.69 0-1.07.82-.13.26-.37.92-.9 2.48-2.19 4.17-1.25 1.64-3.1 3.16l.13.65 5.85.02v2.79h-2.3Z"/><path fill="none" stroke="#001f3f" stroke-width=".165" d="m974.898 40.909 1.488 5.526a5.65 5.65 0 0 0 3.987 3.987l5.526 1.488-5.526 1.488a5.65 5.65 0 0 0-3.987 3.987l-1.488 5.526-1.488-5.526a5.65 5.65 0 0 0-3.987-3.987l-5.525-1.489 5.526-1.488a5.65 5.65 0 0 0 3.987-3.987Zm126.98 0 1.488 5.526a5.65 5.65 0 0 0 3.987 3.987l5.526 1.488-5.526 1.488a5.65 5.65 0 0 0-3.987 3.987l-1.488 5.526-1.488-5.526a5.65 5.65 0 0 0-3.987-3.987l-5.525-1.489 5.526-1.488a5.65 5.65 0 0 0 3.987-3.987Z" paint-order="stroke"/></g><path fill="transparent" stroke="transparent" d="M791 0h418v559H791z"/></g></svg>